<svg width="195" height="19" viewBox="0 0 195 19" fill="none" xmlns="http://www.w3.org/2000/svg">
    <path d="M5.50769 18.4091C9.29124 18.4091 10.9914 15.6969 10.9914 12.3607V0.312018H7.44736V12.0727C7.44736 14.5209 6.63318 15.3369 5.05271 15.3369C4.04696 15.3369 3.11304 14.7849 2.44254 13.4888L0 15.3129C1.19732 17.377 2.92147 18.4091 5.50769 18.4091Z" fill="black"/>
    <path d="M15.2625 18.0731H18.8066V0.312018H15.2625V18.0731Z" fill="black"/>
    <path d="M20.8918 18.0731H24.4838L27.0221 8.83252C27.5489 6.98441 28.0518 4.94429 28.5308 3.02418H28.6265C29.1294 4.92029 29.6323 6.98441 30.1591 8.83252L32.6974 18.0731H36.4092L30.7338 0.312018H26.5671L20.8918 18.0731ZM24.412 13.5128H32.8411V10.7766H24.412V13.5128Z" fill="black"/>
    <path d="M38.5075 18.0731H41.86V10.9686C41.86 8.90453 41.5726 6.67239 41.405 4.77628H41.5247L43.3207 8.56851L48.4453 18.0731H52.0612V0.312018H48.6847V7.39244C48.6847 9.40856 48.9721 11.7847 49.1637 13.6328H49.0439L47.2479 9.79258L42.0994 0.312018H38.5075V18.0731Z" fill="black"/>
    <path d="M64.0589 18.4091C66.5015 18.4091 68.6088 17.473 69.8061 16.273V8.28049H63.4842V11.1847H66.6452V14.6889C66.1423 15.0969 65.2802 15.3369 64.4181 15.3369C60.9459 15.3369 59.1739 13.0328 59.1739 9.14454C59.1739 5.35232 61.2093 3.04818 64.1787 3.04818C65.7591 3.04818 66.7649 3.69622 67.6509 4.53627L69.5187 2.25613C68.3693 1.10407 66.5973 0 64.0589 0C59.3415 0 55.5579 3.4082 55.5579 9.26455C55.5579 15.1929 59.2457 18.4091 64.0589 18.4091Z" fill="black"/>
    <path d="M71.7648 18.0731H75.5244L77.4162 14.1368C77.8233 13.2248 78.2544 12.3127 78.6854 11.2087H78.7812C79.308 12.3127 79.739 13.2248 80.194 14.1368L82.1816 18.0731H86.1088L81.104 9.09654L85.7736 0.312018H82.0379L80.3616 3.98424C79.9785 4.82428 79.6193 5.68834 79.1883 6.7924H79.0925C78.5657 5.68834 78.1825 4.82428 77.7515 3.98424L75.9794 0.312018H72.0522L76.7457 8.92853L71.7648 18.0731Z" fill="black"/>
    <path d="M95.0253 18.4091C99.3596 18.4091 101.874 15.9849 101.874 10.1046V0.312018H98.4736V10.4166C98.4736 14.0888 97.1087 15.3369 95.0253 15.3369C92.942 15.3369 91.6489 14.0888 91.6489 10.4166V0.312018H88.1287V10.1046C88.1287 15.9849 90.691 18.4091 95.0253 18.4091Z" fill="black"/>
    <path d="M106.138 18.0731H117.273V15.0969H109.682V10.3686H115.884V7.36844H109.682V3.26419H117.009V0.312018H106.138V18.0731Z" fill="black"/>
    <path d="M125.455 18.0731H130.53C135.774 18.0731 139.118 15.0969 139.118 9.12054C139.118 3.12018 135.774 0.312018 130.338 0.312018H125.455V18.0731ZM129.015 15.2169V3.14419H130.097C133.441 3.14419 135.486 4.80028 135.486 9.12054C135.486 13.4408 133.441 15.2169 130.097 15.2169H129.015Z" fill="#0066FF"/>
    <path d="M139.38 18.0731H150.566V15.0969H142.94V10.3686H149.17V7.36844H142.94V3.26419H150.301V0.312018H139.38V18.0731Z" fill="#0066FF"/>
    <path d="M156.248 18.4091C160.338 18.4091 162.768 15.9369 162.768 13.0328C162.768 10.4886 161.348 9.09654 159.207 8.20849L156.874 7.24843C155.358 6.64839 154.083 6.16837 154.083 4.89629C154.083 3.74422 155.07 3.04818 156.633 3.04818C158.101 3.04818 159.279 3.57621 160.434 4.51227L162.214 2.28013C160.771 0.816047 158.702 0 156.633 0C153.049 0 150.475 2.23213 150.475 5.1363C150.475 7.70446 152.303 9.16854 154.083 9.88858L156.465 10.8966C158.053 11.5687 159.135 12.0007 159.135 13.3208C159.135 14.5449 158.173 15.3369 156.321 15.3369C154.757 15.3369 153.049 14.5689 151.798 13.3928L149.753 15.8409C151.485 17.497 153.843 18.4091 156.248 18.4091Z" fill="#0066FF"/>
    <path d="M162.696 18.0731H166.256V0.312018H162.696V18.0731Z" fill="#0066FF"/>
    <path d="M175.039 18.4091C177.492 18.4091 179.609 17.473 180.812 16.273V8.28049H174.461V11.1847H177.637V14.6889C177.131 15.0969 176.265 15.3369 175.399 15.3369C171.911 15.3369 170.131 13.0328 170.131 9.14454C170.131 5.35232 172.176 3.04818 175.159 3.04818C176.746 3.04818 177.757 3.69622 178.647 4.53627L180.523 2.25613C179.369 1.10407 177.588 0 175.039 0C170.3 0 166.499 3.4082 166.499 9.26455C166.499 15.1929 170.203 18.4091 175.039 18.4091Z" fill="#0066FF"/>
    <path d="M181.384 18.0731H184.752V10.9686C184.752 8.90453 184.464 6.67239 184.295 4.77628H184.415L186.22 8.56851L191.368 18.0731H195V0.312018H191.608V7.39244C191.608 9.40856 191.897 11.7847 192.089 13.6328H191.969L190.165 9.79258L184.993 0.312018H181.384V18.0731Z" fill="#0066FF"/>
</svg>
