<svg width="95" height="62" viewBox="0 0 95 62" fill="none" xmlns="http://www.w3.org/2000/svg">
    <path d="M2.38776 7.83705C3.85505 7.83705 4.74818 6.95208 4.74818 5.87551C4.74818 4.89017 4.17402 4.39751 3.38114 4.05994L2.46067 3.67675C1.91385 3.44867 1.37615 3.2297 1.37615 2.65493C1.37615 2.12577 1.8136 1.79732 2.49712 1.79732C3.0895 1.79732 3.56341 2.02541 3.98264 2.39035L4.52945 1.72433C4.0282 1.2043 3.29 0.875852 2.49712 0.875852C1.22122 0.875852 0.300748 1.66959 0.300748 2.72791C0.300748 3.70412 1.01161 4.21504 1.65867 4.47962L2.58826 4.89017C3.20798 5.15476 3.66366 5.34635 3.66366 5.95762C3.66366 6.5324 3.20798 6.90646 2.40599 6.90646C1.75892 6.90646 1.09363 6.59626 0.619724 6.11272L0 6.85172C0.61061 7.47211 1.45817 7.83705 2.38776 7.83705Z" fill="black" fill-opacity="0.5"/>
    <path d="M8.62508 7.83705C9.49999 7.83705 10.1835 7.49036 10.7212 6.86084L10.1471 6.19483C9.75517 6.63276 9.28126 6.90646 8.67065 6.90646C7.48588 6.90646 6.73857 5.93025 6.73857 4.33364C6.73857 2.76441 7.54057 1.79732 8.69799 1.79732C9.24481 1.79732 9.66403 2.04365 10.0103 2.39947L10.5754 1.71521C10.1653 1.27728 9.51821 0.875852 8.67976 0.875852C6.98464 0.875852 5.64494 2.18051 5.64494 4.37014C5.64494 6.57801 6.94818 7.83705 8.62508 7.83705Z" fill="black" fill-opacity="0.5"/>
    <path d="M11.9013 7.70932H12.9676V0.994457H11.9013V7.70932Z" fill="black" fill-opacity="0.5"/>
    <path d="M14.7137 7.70932H18.7874V6.81523H15.78V4.65296H18.2315V3.74974H15.78V1.88856H18.6872V0.994457H14.7137V7.70932Z" fill="black" fill-opacity="0.5"/>
    <path d="M20.1783 7.70932H21.1899V4.55261C21.1899 3.81361 21.0987 3.04724 21.0532 2.34473H21.0987L21.8005 3.75887L24.0151 7.70932H25.1087V0.994457H24.0971V4.13293C24.0971 4.85368 24.1791 5.67479 24.2429 6.35905H24.1973L23.4956 4.94492L21.2628 0.994457H20.1783V7.70932Z" fill="black" fill-opacity="0.5"/>
    <path d="M29.4866 7.83705C30.3615 7.83705 31.0451 7.49036 31.5828 6.86084L31.0086 6.19483C30.6167 6.63276 30.1428 6.90646 29.5322 6.90646C28.3474 6.90646 27.6001 5.93025 27.6001 4.33364C27.6001 2.76441 28.4021 1.79732 29.5596 1.79732C30.1064 1.79732 30.5256 2.04365 30.8719 2.39947L31.437 1.71521C31.0268 1.27728 30.3798 0.875852 29.5413 0.875852C27.8462 0.875852 26.5065 2.18051 26.5065 4.37014C26.5065 6.57801 27.8097 7.83705 29.4866 7.83705Z" fill="black" fill-opacity="0.5"/>
    <path d="M32.7628 7.70932H36.8366V6.81523H33.8291V4.65296H36.2807V3.74974H33.8291V1.88856H36.7364V0.994457H32.7628V7.70932Z" fill="black" fill-opacity="0.5"/>
    <path d="M40.2744 7.70932H41.3407V4.82631H43.8196V3.93221H41.3407V1.88856H44.2571V0.994457H40.2744V7.70932Z" fill="black" fill-opacity="0.5"/>
    <path d="M45.4364 7.70932H46.5027V0.994457H45.4364V7.70932Z" fill="black" fill-opacity="0.5"/>
    <path d="M50.8644 7.83705C51.7393 7.83705 52.4228 7.49036 52.9605 6.86084L52.3864 6.19483C51.9945 6.63276 51.5206 6.90646 50.91 6.90646C49.7252 6.90646 48.9779 5.93025 48.9779 4.33364C48.9779 2.76441 49.7799 1.79732 50.9373 1.79732C51.4841 1.79732 51.9034 2.04365 52.2497 2.39947L52.8147 1.71521C52.4046 1.27728 51.7575 0.875852 50.9191 0.875852C49.224 0.875852 47.8843 2.18051 47.8843 4.37014C47.8843 6.57801 49.1875 7.83705 50.8644 7.83705Z" fill="black" fill-opacity="0.5"/>
    <path d="M55.3029 7.70932H56.3692V1.88856H58.3378V0.994457H53.3344V1.88856H55.3029V7.70932Z" fill="black" fill-opacity="0.5"/>
    <path d="M59.5073 7.70932H60.5736V0.994457H59.5073V7.70932Z" fill="black" fill-opacity="0.5"/>
    <path d="M64.8806 7.83705C66.6031 7.83705 67.7969 6.4959 67.7969 4.32452C67.7969 2.16226 66.6031 0.875852 64.8806 0.875852C63.149 0.875852 61.9551 2.16226 61.9551 4.32452C61.9551 6.4959 63.149 7.83705 64.8806 7.83705ZM64.8806 6.90646C63.7596 6.90646 63.0488 5.89376 63.0488 4.32452C63.0488 2.75528 63.7596 1.79732 64.8806 1.79732C65.9925 1.79732 66.7124 2.75528 66.7124 4.32452C66.7124 5.89376 65.9925 6.90646 64.8806 6.90646Z" fill="black" fill-opacity="0.5"/>
    <path d="M69.1905 7.70932H70.2021V4.55261C70.2021 3.81361 70.1109 3.04724 70.0654 2.34473H70.1109L70.8127 3.75887L73.0273 7.70932H74.1209V0.994457H73.1093V4.13293C73.1093 4.85368 73.1913 5.67479 73.2551 6.35905H73.2096L72.5078 4.94492L70.275 0.994457H69.1905V7.70932Z" fill="black" fill-opacity="0.5"/>
    <path d="M78.8781 0.811988V8.46657H79.7165V0.811988H78.8781ZM77.4017 2.58194V3.3848H81.0015V2.58194H77.4017ZM78.9236 2.90126C78.6138 3.97783 77.9211 5.35547 77.2741 6.08535C77.4199 6.29519 77.6113 6.651 77.6933 6.89734C78.3951 6.03061 79.0877 4.41575 79.4431 3.12022L78.9236 2.90126ZM80.4091 0.118605C79.6892 0.428802 78.5135 0.702506 77.4837 0.857605C77.5748 1.0492 77.6842 1.34115 77.7206 1.53274C78.7778 1.39589 80.0264 1.15868 80.9104 0.821111L80.4091 0.118605ZM79.6801 3.47604L79.2973 3.83185C79.5707 4.19679 80.2178 5.2095 80.4365 5.65655L80.9468 4.99053C80.7555 4.73508 79.917 3.70413 79.6801 3.47604ZM83.8997 0V8.46657H84.7563V0H83.8997ZM80.8739 5.92113L81.0015 6.74224L85.8864 5.92113L85.7497 5.10914L80.8739 5.92113ZM81.5483 1.10394C82.0678 1.48712 82.6967 2.05278 82.961 2.43596L83.5625 1.88856C83.2708 1.49625 82.6329 0.967087 82.1043 0.611271L81.5483 1.10394ZM81.1929 3.49429C81.758 3.87747 82.4324 4.46137 82.7422 4.8628L83.3255 4.29715C82.9974 3.90484 82.3048 3.35743 81.7397 2.9925L81.1929 3.49429Z" fill="black" fill-opacity="0.5"/>
    <path d="M90.507 0.884976V1.70609H94.1707V0.884976H90.507ZM93.7879 0.884976V1.08569C93.6876 5.28248 93.5692 6.88821 93.2684 7.21666C93.1682 7.34439 93.0588 7.38088 92.8948 7.38088C92.6578 7.38088 92.1383 7.38088 91.5551 7.33526C91.7191 7.57247 91.8194 7.93741 91.8376 8.18374C92.3753 8.21111 92.9312 8.22936 93.2593 8.18374C93.6056 8.129 93.8243 8.03777 94.0522 7.72757C94.4167 7.25315 94.5261 5.72953 94.6446 1.33202C94.6446 1.21342 94.6537 0.884976 94.6537 0.884976H93.7879ZM89.4134 5.29161C89.869 6.20395 90.343 7.41737 90.4979 8.15637L91.2725 7.81881C91.0994 7.07068 90.589 5.90288 90.1242 5.00878L89.4134 5.29161ZM86.8889 4.34277C86.8889 4.16942 87.4539 3.88659 87.4539 3.88659V3.85922C88.1648 2.93775 88.903 1.6331 89.4407 0.374062L88.5658 0.0182465C88.1557 1.24079 87.4266 2.55457 87.1805 2.88301C86.9618 3.22058 86.7887 3.44867 86.5973 3.50341C86.6975 3.7315 86.8433 4.1603 86.8889 4.34277ZM86.8889 4.34277C87.0894 4.26066 87.4175 4.19679 89.4225 4.02345C89.4225 3.83185 89.4681 3.49429 89.5136 3.25708L87.299 3.40305L86.8707 3.66763L86.8889 4.34277ZM86.9527 7.79144C86.9527 7.61809 87.5451 7.32614 87.5451 7.32614V7.30789C88.6114 6.08535 89.7506 4.39751 90.6346 2.65493L89.7779 2.27174C89.0488 3.95046 87.8641 5.70216 87.4813 6.14921C87.1259 6.60539 86.8889 6.88821 86.6428 6.9612C86.7613 7.18929 86.9071 7.61809 86.9527 7.79144ZM86.9527 7.79144C87.2079 7.65458 87.6089 7.56335 90.4159 7.07068C90.3976 6.87909 90.4159 6.51415 90.4523 6.26782L87.3537 6.76048L86.9071 7.06156L86.9527 7.79144Z" fill="black" fill-opacity="0.5"/>
    <path d="M16.6325 21.0904H17.6988V15.2696H19.6673V14.3755H14.664V15.2696H16.6325V21.0904Z" fill="black" fill-opacity="0.5"/>
    <path d="M20.8369 21.0904H24.9106V20.1963H21.9031V18.034H24.3547V17.1308H21.9031V15.2696H24.8104V14.3755H20.8369V21.0904Z" fill="black" fill-opacity="0.5"/>
    <path d="M28.917 21.2181C29.792 21.2181 30.4755 20.8714 31.0132 20.2419L30.439 19.5759C30.0471 20.0138 29.5732 20.2875 28.9626 20.2875C27.7778 20.2875 27.0305 19.3113 27.0305 17.7147C27.0305 16.1455 27.8325 15.1784 28.99 15.1784C29.5368 15.1784 29.956 15.4247 30.3023 15.7805L30.8674 15.0963C30.4572 14.6584 29.8102 14.2569 28.9717 14.2569C27.2766 14.2569 25.9369 15.5616 25.9369 17.7512C25.9369 19.9591 27.2401 21.2181 28.917 21.2181Z" fill="black" fill-opacity="0.5"/>
    <path d="M32.1932 21.0904H33.2595V18.0432H36.1303V21.0904H37.1875V14.3755H36.1303V17.1217H33.2595V14.3755H32.1932V21.0904Z" fill="black" fill-opacity="0.5"/>
    <path d="M38.9483 21.0904H39.9599V17.9337C39.9599 17.1947 39.8688 16.4283 39.8232 15.7258H39.8688L40.5705 17.1399L42.7851 21.0904H43.8788V14.3755H42.8672V17.514C42.8672 18.2348 42.9492 19.0559 43.013 19.7401H42.9674L42.2657 18.326L40.0328 14.3755H38.9483V21.0904Z" fill="black" fill-opacity="0.5"/>
    <path d="M48.202 21.2181C49.9245 21.2181 51.1184 19.877 51.1184 17.7056C51.1184 15.5433 49.9245 14.2569 48.202 14.2569C46.4704 14.2569 45.2766 15.5433 45.2766 17.7056C45.2766 19.877 46.4704 21.2181 48.202 21.2181ZM48.202 20.2875C47.0811 20.2875 46.3702 19.2748 46.3702 17.7056C46.3702 16.1364 47.0811 15.1784 48.202 15.1784C49.3139 15.1784 50.0339 16.1364 50.0339 17.7056C50.0339 19.2748 49.3139 20.2875 48.202 20.2875Z" fill="black" fill-opacity="0.5"/>
    <path d="M52.5119 21.0904H56.4216V20.1963H53.5782V14.3755H52.5119V21.0904Z" fill="black" fill-opacity="0.5"/>
    <path d="M59.8254 21.2181C61.5479 21.2181 62.7418 19.877 62.7418 17.7056C62.7418 15.5433 61.5479 14.2569 59.8254 14.2569C58.0938 14.2569 56.8999 15.5433 56.8999 17.7056C56.8999 19.877 58.0938 21.2181 59.8254 21.2181ZM59.8254 20.2875C58.7044 20.2875 57.9936 19.2748 57.9936 17.7056C57.9936 16.1364 58.7044 15.1784 59.8254 15.1784C60.9373 15.1784 61.6572 16.1364 61.6572 17.7056C61.6572 19.2748 60.9373 20.2875 59.8254 20.2875Z" fill="black" fill-opacity="0.5"/>
    <path d="M66.8785 21.2181C67.7898 21.2181 68.5554 20.8806 69.0019 20.4244V17.514H66.7144V18.3899H68.0359V19.9591C67.8081 20.1689 67.3979 20.2875 66.9878 20.2875C65.6026 20.2875 64.8644 19.3113 64.8644 17.7147C64.8644 16.1455 65.6846 15.1784 66.9423 15.1784C67.5802 15.1784 67.9903 15.443 68.3275 15.7805L68.9017 15.0963C68.4916 14.6766 67.8536 14.2569 66.9058 14.2569C65.1287 14.2569 63.7707 15.5616 63.7707 17.7512C63.7707 19.9591 65.0922 21.2181 66.8785 21.2181Z" fill="black" fill-opacity="0.5"/>
    <path d="M71.6373 21.0904H72.6945V18.5541L74.7086 14.3755H73.6059L72.8312 16.1637C72.6216 16.6564 72.412 17.1308 72.1841 17.6417H72.1477C71.929 17.1308 71.7376 16.6564 71.528 16.1637L70.7442 14.3755H69.6141L71.6373 18.5541V21.0904Z" fill="black" fill-opacity="0.5"/>
    <path d="M80.5276 14.7678V15.5707H85.5765V14.7678H80.5276ZM80.7008 16.8206V17.6052H84.6652V16.8206H80.7008ZM82.5964 13.3902V17.2585H83.444V13.3902H82.5964ZM81.7124 17.4228L80.9377 17.6509C81.7488 19.7584 83.1797 21.2273 85.3669 21.8659C85.4854 21.6469 85.7315 21.3002 85.9229 21.1269C83.8176 20.5886 82.3868 19.2475 81.7124 17.4228ZM84.5832 16.8206V16.9666C83.9726 19.1562 82.1407 20.543 79.999 21.0722C80.1631 21.2546 80.3727 21.6196 80.4638 21.8476C82.7787 21.1634 84.6925 19.6763 85.449 17.0213L84.9022 16.7933L84.7472 16.8206H84.5832ZM77.347 18.1344L77.5839 18.9646C78.4133 18.7365 79.4796 18.4446 80.4821 18.1435L80.3727 17.3589C79.2791 17.66 78.1308 17.9611 77.347 18.1344ZM77.4655 15.1875V15.9904H80.4V15.1875H77.4655ZM78.5864 13.3902V20.8623C78.5864 20.9992 78.5409 21.0448 78.4133 21.0448C78.2948 21.0448 77.9029 21.0448 77.5019 21.0357C77.6113 21.2637 77.7298 21.6104 77.7571 21.8294C78.395 21.8294 78.796 21.802 79.0695 21.6743C79.3429 21.5374 79.434 21.3185 79.434 20.8714V13.3902H78.5864Z" fill="black" fill-opacity="0.5"/>
    <path d="M91.4092 16.2276L90.6893 16.5195C91.5642 18.1253 93.0132 19.8496 94.3074 20.7984C94.4623 20.5521 94.7722 20.2145 95 20.0321C93.6968 19.211 92.2021 17.6509 91.4092 16.2276ZM90.1698 16.255C89.4134 17.806 87.937 19.3569 86.4332 20.1142C86.6428 20.2967 86.9345 20.6433 87.0894 20.8714C88.6296 19.9773 90.0878 18.326 90.9536 16.5378L90.1698 16.255ZM86.7522 15.6711V16.5287H94.6537V15.6711H86.7522ZM90.2701 13.3993V21.8659H91.2179V13.3993H90.2701ZM91.6918 14.0471C92.2295 14.4576 92.9312 15.0415 93.2684 15.4156L93.9337 14.8135C93.5783 14.4485 92.8492 13.9011 92.3206 13.5179L91.6918 14.0471Z" fill="black" fill-opacity="0.5"/>
    <path d="M38.2709 34.5992C39.1458 34.5992 39.8293 34.2525 40.3671 33.623L39.7929 32.957C39.401 33.3949 38.9271 33.6686 38.3165 33.6686C37.1317 33.6686 36.3844 32.6924 36.3844 31.0958C36.3844 29.5266 37.1864 28.5595 38.3438 28.5595C38.8907 28.5595 39.3099 28.8058 39.6562 29.1616L40.2212 28.4774C39.8111 28.0394 39.1641 27.638 38.3256 27.638C36.6305 27.638 35.2908 28.9427 35.2908 31.1323C35.2908 33.3402 36.594 34.5992 38.2709 34.5992Z" fill="black" fill-opacity="0.5"/>
    <path d="M43.83 34.5992C45.3155 34.5992 46.318 33.7781 46.318 31.5976V27.7566H45.2973V31.6614C45.2973 33.1759 44.6684 33.6686 43.83 33.6686C42.9915 33.6686 42.3901 33.1759 42.3901 31.6614V27.7566H41.3329V31.5976C41.3329 33.7781 42.3354 34.5992 43.83 34.5992Z" fill="black" fill-opacity="0.5"/>
    <path d="M48.0441 34.4715H51.9538V33.5774H49.1104V27.7566H48.0441V34.4715Z" fill="black" fill-opacity="0.5"/>
    <path d="M53.2292 34.4715H54.2955V28.6507H56.2641V27.7566H51.2607V28.6507H53.2292V34.4715Z" fill="black" fill-opacity="0.5"/>
    <path d="M59.9034 34.5992C61.3889 34.5992 62.3914 33.7781 62.3914 31.5976V27.7566H61.3707V31.6614C61.3707 33.1759 60.7418 33.6686 59.9034 33.6686C59.0649 33.6686 58.4634 33.1759 58.4634 31.6614V27.7566H57.4062V31.5976C57.4062 33.7781 58.4087 34.5992 59.9034 34.5992Z" fill="black" fill-opacity="0.5"/>
    <path d="M64.1175 34.4715H65.1838V31.7618H66.3139C67.6991 31.7618 68.7381 31.114 68.7381 29.709C68.7381 28.2493 67.6991 27.7566 66.3139 27.7566H64.1175V34.4715ZM65.1838 30.9133V28.6142H66.1954C67.1614 28.6142 67.69 28.897 67.69 29.709C67.69 30.5119 67.1614 30.9133 66.1954 30.9133H65.1838ZM67.7903 34.4715H68.975L66.8971 30.8677L66.1133 31.4881L67.7903 34.4715Z" fill="black" fill-opacity="0.5"/>
    <path d="M70.0983 34.4715H74.172V33.5774H71.1646V31.4151H73.6161V30.5119H71.1646V28.6507H74.0718V27.7566H70.0983V34.4715Z" fill="black" fill-opacity="0.5"/>
    <path d="M83.526 28.7511C82.5417 31.8257 80.5732 33.5409 77.3379 34.4167C77.511 34.6175 77.7753 35.0189 77.8665 35.2287C81.1929 34.1978 83.2799 32.3275 84.4191 28.9974L83.526 28.7511ZM79.6527 28.7967L78.8507 29.043C80.0081 32.1359 82.0222 34.2799 85.3214 35.174C85.4581 34.9368 85.7133 34.5627 85.9138 34.3711C82.724 33.6047 80.6461 31.5611 79.6527 28.7967ZM77.4837 28.3496V29.1981H85.7679V28.3496H77.4837ZM80.8648 26.972C81.12 27.419 81.3843 28.0303 81.4846 28.4044L82.4506 28.0942C82.3321 27.7201 82.0314 27.1271 81.7762 26.6983L80.8648 26.972Z" fill="black" fill-opacity="0.5"/>
    <path d="M90.8077 26.9264V33.5865C90.8077 34.7452 91.0994 35.0827 92.1019 35.0827C92.3115 35.0827 93.3869 35.0827 93.6056 35.0827C94.6263 35.0827 94.8633 34.4532 94.9727 32.7106C94.7175 32.6468 94.3347 32.4643 94.116 32.3001C94.0522 33.8328 93.9793 34.216 93.5327 34.216C93.3049 34.216 92.4209 34.216 92.2204 34.216C91.8102 34.216 91.7373 34.1248 91.7373 33.6047V26.9264H90.8077ZM93.9793 28.0394C92.7672 29.9006 90.7713 31.4516 89.0033 32.3001C89.222 32.4643 89.5045 32.7654 89.6412 32.957C91.4457 32.0538 93.4507 30.4936 94.8086 28.596L93.9793 28.0394ZM88.903 26.753C88.3653 28.1215 87.4539 29.4536 86.497 30.3021C86.6702 30.5028 86.9527 30.9589 87.0621 31.1597C88.0919 30.1561 89.1217 28.5777 89.7688 27.0359L88.903 26.753ZM87.9461 29.1434V35.2378H88.8574V28.2584L88.8483 28.2493L87.9461 29.1434Z" fill="black" fill-opacity="0.5"/>
    <path d="M40.132 47.8526H41.1983V45.1429H42.3284C43.7137 45.1429 44.7526 44.4951 44.7526 43.0901C44.7526 41.6304 43.7137 41.1377 42.3284 41.1377H40.132V47.8526ZM41.1983 44.2944V41.9953H42.2099C43.176 41.9953 43.7045 42.2781 43.7045 43.0901C43.7045 43.893 43.176 44.2944 42.2099 44.2944H41.1983ZM43.8048 47.8526H44.9896L42.9117 44.2488L42.1279 44.8692L43.8048 47.8526Z" fill="black" fill-opacity="0.5"/>
    <path d="M46.1128 47.8526H50.1866V46.9585H47.1791V44.7962H49.6307V43.893H47.1791V42.0318H50.0863V41.1377H46.1128V47.8526Z" fill="black" fill-opacity="0.5"/>
    <path d="M50.7025 47.8526H51.7779L52.8624 44.2123C53.0903 43.4824 53.2908 42.7343 53.4913 41.977H53.5277C53.7373 42.7252 53.9378 43.4824 54.1657 44.2123L55.2411 47.8526H56.362L54.1474 41.1377H52.9171L50.7025 47.8526ZM51.9511 45.9457H55.0861V45.1155H51.9511V45.9457Z" fill="black" fill-opacity="0.5"/>
    <path d="M57.2467 47.8526H61.1564V46.9585H58.313V41.1377H57.2467V47.8526Z" fill="black" fill-opacity="0.5"/>
    <path d="M62.3286 47.8526H63.3949V41.1377H62.3286V47.8526Z" fill="black" fill-opacity="0.5"/>
    <path d="M66.508 47.8526H67.5743V42.0318H69.5428V41.1377H64.5395V42.0318H66.508V47.8526Z" fill="black" fill-opacity="0.5"/>
    <path d="M71.6373 47.8526H72.6945V45.3162L74.7086 41.1377H73.6059L72.8312 42.9259C72.6216 43.4186 72.412 43.893 72.1841 44.4039H72.1477C71.929 43.893 71.7376 43.4186 71.528 42.9259L70.7442 41.1377H69.6141L71.6373 45.3162V47.8526Z" fill="black" fill-opacity="0.5"/>
    <path d="M77.5019 40.7271V41.5391H80.6005V40.7271H77.5019ZM77.6386 43.3638V44.1667H80.4183V43.3638H77.6386ZM77.3652 46.849L77.5384 47.6792C78.4406 47.4146 79.6254 47.0771 80.7372 46.7577L80.6279 45.9731C79.4431 46.3107 78.1945 46.6574 77.3652 46.849ZM78.6776 41.0738V46.8216L79.5069 46.6756V41.0738H78.6776ZM80.9651 40.5812V45.444H81.7853V41.3384H84.3644V45.444H85.212V40.5812H80.9651ZM83.0339 45.3436V47.5332C83.0339 48.2266 83.2981 48.4091 83.9908 48.4091H84.7563C85.6039 48.4091 85.7315 48.0168 85.8226 46.5844C85.613 46.5388 85.3396 46.4202 85.1391 46.2559C85.0935 47.515 85.0388 47.7704 84.7563 47.7704H84.1275C83.9088 47.7704 83.8359 47.7066 83.8359 47.4511V45.3436H83.0339ZM82.6511 42.0227V43.6466C82.6511 45.0699 82.3777 46.8307 80.0628 48.035C80.2269 48.1628 80.5003 48.4821 80.6005 48.6463C83.0247 47.3781 83.4531 45.2615 83.4531 43.6649V42.0227H82.6511Z" fill="black" fill-opacity="0.5"/>
    <path d="M91.0356 47.0406C92.2295 47.4511 93.4325 48.0533 94.1524 48.5733L94.681 47.8982C93.9337 47.3964 92.6487 46.8034 91.4457 46.411L91.0356 47.0406ZM89.9966 40.3348C90.2336 40.7271 90.4888 41.2654 90.589 41.5939L91.4913 41.3019C91.3819 40.9643 91.1085 40.4534 90.8624 40.0702L89.9966 40.3348ZM86.9345 41.1103V43.0719H87.7912V41.9223H93.633V43.0719H94.5352V41.1103H86.9345ZM90.671 42.3511C90.5799 45.3892 90.4705 47.0862 86.8798 47.8526C87.0621 48.0441 87.2808 48.3726 87.3719 48.6007C91.1996 47.6975 91.4639 45.672 91.5733 42.3511H90.671ZM86.7978 45.4531V46.183H94.6992V45.4531H86.7978ZM88.3197 42.8255C88.8028 43.1084 89.386 43.5554 89.6503 43.8656L90.188 43.2452C89.9055 42.9259 89.3131 42.5245 88.8301 42.269L88.3197 42.8255ZM87.3993 44.2214C87.9005 44.4951 88.5111 44.933 88.7936 45.2524L89.3131 44.6046C89.0124 44.2944 88.4018 43.893 87.9005 43.6466L87.3993 44.2214Z" fill="black" fill-opacity="0.5"/>
    <path d="M50.6775 61.3614C51.5524 61.3614 52.2359 61.0147 52.7736 60.3851L52.1995 59.7191C51.8076 60.1571 51.3337 60.4308 50.7231 60.4308C49.5383 60.4308 48.791 59.4546 48.791 57.8579C48.791 56.2887 49.593 55.3216 50.7504 55.3216C51.2972 55.3216 51.7165 55.568 52.0628 55.9238L52.6278 55.2395C52.2177 54.8016 51.5706 54.4002 50.7322 54.4002C49.0371 54.4002 47.6974 55.7048 47.6974 57.8944C47.6974 60.1023 49.0006 61.3614 50.6775 61.3614Z" fill="black" fill-opacity="0.5"/>
    <path d="M53.9537 61.2336H55.02V58.1864H57.8908V61.2336H58.9479V54.5188H57.8908V57.2649H55.02V54.5188H53.9537V61.2336Z" fill="black" fill-opacity="0.5"/>
    <path d="M60.7088 61.2336H61.7751V54.5188H60.7088V61.2336Z" fill="black" fill-opacity="0.5"/>
    <path d="M63.5212 61.2336H64.5328V58.0769C64.5328 57.3379 64.4417 56.5715 64.3961 55.869H64.4417L65.1434 57.2832L67.358 61.2336H68.4516V54.5188H67.44V57.6572C67.44 58.378 67.522 59.1991 67.5858 59.8834H67.5403L66.8385 58.4692L64.6057 54.5188H63.5212V61.2336Z" fill="black" fill-opacity="0.5"/>
    <path d="M69.3391 61.2336H70.4145L71.499 57.5934C71.7268 56.8635 71.9273 56.1154 72.1278 55.3581H72.1643C72.3739 56.1062 72.5744 56.8635 72.8022 57.5934L73.8776 61.2336H74.9986L72.784 54.5188H71.5537L69.3391 61.2336ZM70.5876 59.3268H73.7227V58.4966H70.5876V59.3268Z" fill="black" fill-opacity="0.5"/>
    <path d="M77.8938 55.1483V59.6097H78.7596V55.9968H84.4191V59.564H85.3214V55.1483H77.8938ZM78.3495 58.2229V59.0714H84.9295V58.2229H78.3495ZM81.1291 53.5334V62H82.0405V53.5334H81.1291Z" fill="black" fill-opacity="0.5"/>
    <path d="M88.3926 55.3764V56.1336H92.995V55.3764H88.3926ZM88.6478 57.2467V57.9857H92.7854V57.2467H88.6478ZM88.2833 59.3268V60.0476H93.1773V59.3268H88.2833ZM90.2701 55.6136V59.71H91.072V55.6136H90.2701ZM91.5186 58.3415C91.8194 58.6426 92.1748 59.0622 92.3388 59.3359L92.9221 58.9984C92.7489 58.7338 92.3844 58.3232 92.0745 58.0495L91.5186 58.3415ZM86.9071 53.9257V62H87.782V54.7195H93.6056V62H94.5261V53.9257H86.9071ZM87.381 60.7501V61.5438H94.034V60.7501H87.381Z" fill="black" fill-opacity="0.5"/>
</svg>
