<svg width="83" height="31" viewBox="0 0 83 31" fill="none" xmlns="http://www.w3.org/2000/svg">
    <path d="M0.5 1H80.5L72 9.5" stroke="black" stroke-width="2"/>
    <path d="M2.5 23H3.76V16.925C3.76 15.965 3.655 14.645 3.58 13.67H3.64L4.51 16.175L6.595 21.905H7.525L9.61 16.175L10.48 13.67H10.555C10.48 14.645 10.375 15.965 10.375 16.925V23H11.665V12.005H9.985L7.9 17.9C7.645 18.65 7.405 19.415 7.135 20.195H7.075C6.805 19.415 6.55 18.65 6.28 17.9L4.165 12.005H2.5V23ZM18.7379 23.21C21.4979 23.21 23.4179 20.99 23.4179 17.465C23.4179 13.955 21.4979 11.81 18.7379 11.81C15.9629 11.81 14.0429 13.94 14.0429 17.465C14.0429 20.99 15.9629 23.21 18.7379 23.21ZM18.7379 21.98C16.7579 21.98 15.4679 20.21 15.4679 17.465C15.4679 14.72 16.7579 13.025 18.7379 13.025C20.7029 13.025 22.0079 14.72 22.0079 17.465C22.0079 20.21 20.7029 21.98 18.7379 21.98ZM25.8057 23H27.2007V18.35H29.2407C31.4757 18.35 33.0807 17.3 33.0807 15.095C33.0807 12.815 31.4757 12.005 29.2407 12.005H25.8057V23ZM27.2007 17.225V13.145H29.0457C30.7557 13.145 31.7007 13.655 31.7007 15.095C31.7007 16.52 30.7557 17.225 29.0457 17.225H27.2007ZM31.8507 23H33.4107L30.0507 17.255L28.9707 17.975L31.8507 23ZM35.3271 23H41.8221V21.83H36.7221V17.81H40.8771V16.625H36.7221V13.175H41.6571V12.005H35.3271V23Z" fill="black"/>
</svg>
