<svg width="107" height="107" viewBox="0 0 107 107" fill="none" xmlns="http://www.w3.org/2000/svg">
    <rect width="107" height="107" fill="#0066FF"/>
    <path d="M34 44H36.64V32.48C36.64 30.14 36.43 27.83 36.28 25.61H36.43L38.8 30.14L46.78 44H49.66V22.01H46.99V33.44C46.99 35.72 47.2 38.21 47.38 40.43H47.23L44.86 35.87L36.85 22.01H34V44ZM55.6797 44H68.6697V41.66H58.4697V33.62H66.7797V31.25H58.4697V24.35H68.3397V22.01H55.6797V44ZM70.8557 44H73.7657L76.9457 38.06C77.4857 36.98 78.0557 35.87 78.6857 34.52H78.8057C79.5557 35.87 80.1557 36.98 80.7257 38.06L83.9657 44H87.0257L80.6057 32.78L86.6057 22.01H83.6957L80.7257 27.65C80.1857 28.67 79.7657 29.57 79.1657 30.86H79.0457C78.3557 29.57 77.8757 28.67 77.3057 27.65L74.3357 22.01H71.2457L77.2757 32.66L70.8557 44ZM94.3413 44H97.1613V24.35H103.791V22.01H87.7113V24.35H94.3413V44Z" fill="white" fill-opacity="0.26"/>
    <path d="M13.8981 77C16.5759 77 17.7792 75.0847 17.7792 72.7288V64.2203H15.2709V72.5254C15.2709 74.2542 14.6946 74.8305 13.5761 74.8305C12.8642 74.8305 12.2033 74.4407 11.7287 73.5254L10 74.8136C10.8474 76.2712 12.0677 77 13.8981 77Z" fill="white"/>
    <path d="M20.8021 76.7627H23.3104V64.2203H20.8021V76.7627Z" fill="white"/>
    <path d="M24.7862 76.7627H27.3285L29.125 70.2373C29.4978 68.9322 29.8537 67.4915 30.1927 66.1356H30.2605C30.6164 67.4746 30.9723 68.9322 31.3452 70.2373L33.1417 76.7627H35.7686L31.7519 64.2203H28.8029L24.7862 76.7627ZM27.2776 73.5424H33.2434V71.6102H27.2776V73.5424Z" fill="white"/>
    <path d="M37.2537 76.7627H39.6265V71.7458C39.6265 70.2881 39.4231 68.7119 39.3045 67.3729H39.3892L40.6603 70.0508L44.2872 76.7627H46.8464V64.2203H44.4567V69.2203C44.4567 70.6441 44.6601 72.322 44.7957 73.6271H44.7109L43.4398 70.9153L39.796 64.2203H37.2537V76.7627Z" fill="white"/>
    <path d="M55.3378 77C57.0666 77 58.558 76.339 59.4054 75.4915V69.8475H54.9311V71.8983H57.1682V74.3729C56.8123 74.661 56.2022 74.8305 55.5921 74.8305C53.1346 74.8305 51.8804 73.2034 51.8804 70.4576C51.8804 67.7797 53.321 66.1525 55.4226 66.1525C56.5412 66.1525 57.253 66.6102 57.8801 67.2034L59.202 65.5932C58.3885 64.7797 57.1343 64 55.3378 64C51.999 64 49.3212 66.4068 49.3212 70.5424C49.3212 74.7288 51.9313 77 55.3378 77Z" fill="white"/>
    <path d="M60.7917 76.7627H63.4526L64.7915 73.983C65.0796 73.339 65.3847 72.6949 65.6897 71.9153H65.7575C66.1304 72.6949 66.4354 73.339 66.7575 73.983L68.1642 76.7627H70.9437L67.4015 70.4237L70.7064 64.2203H68.0625L66.8761 66.8136C66.6049 67.4068 66.3507 68.0169 66.0456 68.7966H65.9779C65.605 68.0169 65.3338 67.4068 65.0288 66.8136L63.7746 64.2203H60.9951L64.3169 70.3051L60.7917 76.7627Z" fill="white"/>
    <path d="M77.2543 77C80.322 77 82.1015 75.2881 82.1015 71.1356V64.2203H79.6949V71.3559C79.6949 73.9492 78.7288 74.8305 77.2543 74.8305C75.7799 74.8305 74.8647 73.9492 74.8647 71.3559V64.2203H72.3733V71.1356C72.3733 75.2881 74.1867 77 77.2543 77Z" fill="white"/>
    <path d="M85.1191 76.7627H93V74.661H87.6274V71.322H92.017V69.2034H87.6274V66.3051H92.8136V64.2203H85.1191V76.7627Z" fill="white"/>
    <path d="M11 95.7262H15.2331C19.6067 95.7262 22.3954 93.3012 22.3954 88.4316C22.3954 83.5424 19.6067 81.2542 15.0726 81.2542H11V95.7262ZM13.9692 93.399V83.5619H14.872C17.6607 83.5619 19.366 84.9113 19.366 88.4316C19.366 91.9518 17.6607 93.399 14.872 93.399H13.9692Z" fill="white" fill-opacity="0.85"/>
    <path d="M22.6134 95.7262H31.9423V93.3012H25.5826V89.4485H30.7787V87.0039H25.5826V83.6597H31.7216V81.2542H22.6134V95.7262Z" fill="white" fill-opacity="0.85"/>
    <path d="M36.6817 96C40.0923 96 42.1186 93.9857 42.1186 91.6193C42.1186 89.5463 40.9349 88.412 39.1494 87.6884L37.2033 86.9061C35.9394 86.4172 34.8761 86.0261 34.8761 84.9896C34.8761 84.0508 35.6987 83.4837 37.0027 83.4837C38.2265 83.4837 39.2096 83.914 40.1726 84.6767L41.6572 82.8579C40.4534 81.6649 38.7281 81 37.0027 81C34.0134 81 31.8668 82.8188 31.8668 85.1851C31.8668 87.2777 33.3915 88.4707 34.8761 89.0574L36.8623 89.8787C38.1864 90.4263 39.0892 90.7784 39.0892 91.854C39.0892 92.8514 38.2867 93.4967 36.7419 93.4967C35.4379 93.4967 34.0134 92.8709 32.9702 91.9126L31.2649 93.9074C32.7094 95.2568 34.6755 96 36.6817 96Z" fill="white" fill-opacity="0.85"/>
    <path d="M42.0589 95.7262H45.0281V81.2542H42.0589V95.7262Z" fill="white" fill-opacity="0.85"/>
    <path d="M52.3524 96C54.3987 96 56.1642 95.2373 57.1673 94.2595V87.7471H51.8709V90.1134H54.5191V92.9687C54.0978 93.3012 53.3756 93.4967 52.6533 93.4967C49.7443 93.4967 48.2597 91.6193 48.2597 88.4511C48.2597 85.3611 49.965 83.4837 52.4527 83.4837C53.7768 83.4837 54.6194 84.0117 55.3617 84.6962L56.9266 82.8383C55.9636 81.8996 54.479 81 52.3524 81C48.4001 81 45.2303 83.7771 45.2303 88.5489C45.2303 93.3794 48.3199 96 52.3524 96Z" fill="white" fill-opacity="0.85"/>
    <path d="M57.6448 95.7262H60.4535V89.9374C60.4535 88.2555 60.2127 86.4368 60.0723 84.8918H60.1726L61.6773 87.9817L65.9706 95.7262H69V81.2542H66.1712V87.0235C66.1712 88.6662 66.412 90.6023 66.5725 92.1082H66.4722L64.9675 88.9791L60.6541 81.2542H57.6448V95.7262Z" fill="white" fill-opacity="0.85"/>
</svg>
